# xmcd CD database file
# Copyright (C) 1993-1997  Ti Kan
#
# Track frame offsets:
#	150
#	15208
#	26353
#	44980
#	70850
#	88470
#	105223
#	126733
#	146968
#	162965
#	178123
#	198993
#	216700
#	233245
#	250328
#	267973
#
# Disc length: 3782 seconds
#
# Revision: 1
# Processed by: cddbd v1.4b41PL1 Copyright (c) Steve Scherf et al.
# Submitted via: xmcd 2.2 PL0
#
DISCID=f50ec410
DTITLE=Bobby Blue Bland - First Class Blues
DYEAR=1900
DGENRE=
TTITLE0=Two Steps From the Blues
TTITLE1=St. James Infirmary
TTITLE2=Members Only
TTITLE3=Sunday Morning Love
TTITLE4=In the Ghetto
TTITLE5=Sweet Woman's Love
TTITLE6=Angel
TTITLE7=I've Just Got to Know
TTITLE8=Can We Make Love Tonight?
TTITLE9=After All
TTITLE10=I Hear You Thinkin'
TTITLE11=Straight From the Shoulder
TTITLE12=Love Me or Leave Me
TTITLE13=Second Hand Heart
TTITLE14=Walkin' and Talkin' and Singin' the Blues
TTITLE15=Heart, Open Up Again
EXTD=
EXTT0=
EXTT1=
EXTT2=
EXTT3=
EXTT4=
EXTT5=
EXTT6=
EXTT7=
EXTT8=
EXTT9=
EXTT10=
EXTT11=
EXTT12=
EXTT13=
EXTT14=
EXTT15=
PLAYORDER=
